<?xml version="1.0" standalone="no"?>
<!DOCTYPE svg PUBLIC "-//W3C//DTD SVG 20010904//EN"
 "http://www.w3.org/TR/2001/REC-SVG-20010904/DTD/svg10.dtd">
<svg version="1.0" xmlns="http://www.w3.org/2000/svg"
 width="125.000000pt" height="125.000000pt" viewBox="0 0 125.000000 125.000000"
 preserveAspectRatio="xMidYMid meet">

<g transform="translate(0.000000,125.000000) scale(0.100000,-0.100000)"
fill="#000000" stroke="none">
<path d="M0 625 l0 -625 60 0 c55 0 60 2 61 23 l0 22 11 -22 c19 -39 26 -26
26 45 0 80 11 152 23 152 5 0 9 -6 9 -12 1 -8 7 -5 15 6 42 55 78 88 85 76 6
-9 9 -9 15 -1 5 8 11 9 19 2 13 -11 32 2 61 44 13 18 14 16 8 -20 -7 -45 -13
-51 -65 -65 -46 -13 -50 -32 -6 -24 69 11 77 15 83 34 6 20 6 20 28 0 32 -30
43 -25 39 18 l-3 37 21 -27 c11 -14 30 -37 41 -50 l20 -23 -7 24 c-4 17 -2 22
7 19 8 -3 21 4 29 15 14 16 20 18 38 8 31 -16 45 -48 36 -79 -10 -35 -5 -184
7 -197 5 -5 9 30 9 89 0 98 9 131 40 153 10 7 21 33 24 58 9 59 29 72 24 15
-2 -25 2 -45 8 -47 7 -2 8 13 3 49 -5 42 -3 57 10 73 20 24 -57 -35 -84 -64
-12 -14 -19 -35 -18 -54 2 -29 1 -30 -7 -9 -6 13 -14 20 -20 17 -5 -3 -10 2
-10 12 0 25 -26 60 -36 50 -5 -4 -2 -12 6 -17 12 -7 12 -12 2 -22 -9 -9 -12
-9 -12 5 0 9 -5 17 -11 17 -5 0 -7 5 -4 11 4 6 -2 19 -14 30 -11 10 -18 26
-15 34 8 19 11 19 42 -6 24 -19 27 -19 30 -4 2 9 10 14 18 11 16 -6 20 19 4
29 -18 11 -10 25 14 25 26 0 87 38 94 58 2 8 -9 5 -32 -8 -20 -11 -45 -20 -55
-20 -23 0 -81 72 -63 78 7 2 12 10 12 18 0 8 5 14 10 14 8 0 8 6 1 18 -7 13
-5 20 12 29 18 10 19 12 5 13 -22 0 -24 20 -3 20 16 0 21 25 6 34 -5 3 -6 25
-4 50 4 35 1 50 -18 75 -12 17 -28 31 -34 31 -16 0 -13 84 4 104 7 9 36 23 63
31 42 12 55 12 81 1 60 -25 96 -90 97 -175 0 -33 3 -42 14 -38 9 4 16 -3 19
-18 5 -28 -15 -113 -29 -123 -32 -23 -44 -115 -19 -148 8 -10 15 -27 15 -37 0
-17 67 -53 215 -113 111 -46 144 -97 165 -254 5 -41 10 -81 10 -87 0 -7 5 -13
10 -13 7 0 10 215 10 625 l0 625 -625 0 -625 0 0 -625z m587 219 c31 -8 19
-24 -18 -24 -28 0 -37 9 -22 23 8 8 12 8 40 1z m18 -53 c7 -13 -26 -82 -48
-101 -17 -14 -17 -19 -4 -58 8 -23 11 -42 8 -42 -17 0 -30 50 -33 122 -3 71
-2 78 17 81 37 8 54 7 60 -2z"/>
<path d="M738 853 c7 -3 16 -2 19 1 4 3 -2 6 -13 5 -11 0 -14 -3 -6 -6z"/>
<path d="M716 811 c-8 -12 13 -18 42 -13 18 4 20 7 10 13 -17 11 -45 11 -52 0z"/>
<path d="M750 694 c1 -5 7 -20 15 -34 13 -24 14 -24 15 -4 0 12 -7 27 -15 34
-8 7 -15 9 -15 4z"/>
<path d="M728 643 c7 -3 16 -2 19 1 4 3 -2 6 -13 5 -11 0 -14 -3 -6 -6z"/>
<path d="M200 50 c0 -27 5 -50 10 -50 6 0 10 5 10 12 0 9 3 9 12 0 19 -19 30
-14 18 8 -6 10 -9 23 -8 27 3 12 -21 53 -32 53 -6 0 -10 -22 -10 -50z"/>
<path d="M366 33 c-6 -14 -5 -15 5 -6 7 7 10 15 7 18 -3 3 -9 -2 -12 -12z"/>
<path d="M1100 19 c0 -11 4 -18 10 -14 5 3 7 12 3 20 -7 21 -13 19 -13 -6z"/>
<path d="M315 10 c-3 -5 1 -10 9 -10 9 0 16 5 16 10 0 6 -4 10 -9 10 -6 0 -13
-4 -16 -10z"/>
</g>
</svg>
